<?xml version="1.0" encoding="utf-8"?>
<!-- Generator: Adobe Illustrator 18.0.0, SVG Export Plug-In . SVG Version: 6.00 Build 0)  -->
<!DOCTYPE svg PUBLIC "-//W3C//DTD SVG 1.0//EN" "http://www.w3.org/TR/2001/REC-SVG-20010904/DTD/svg10.dtd">
<svg version="1.0" id="abc" xmlns="http://www.w3.org/2000/svg" xmlns:xlink="http://www.w3.org/1999/xlink" x="0px" y="0px"
	 viewBox="0 0 524 316" enable-background="new 0 0 524 316" xml:space="preserve">
<g id="z">
	<polyline id="trunk_22_" fill="none" stroke="#000000" stroke-miterlimit="10" points="218.2,287.1 195,263.9 218.2,248.1 
		195,224.3 	"/>
</g>
<g id="y">
	<polyline id="trunk_23_" fill="none" stroke="#000000" stroke-miterlimit="10" points="261.4,287.1 261.4,255.7 238.2,224.3 	"/>
	<line id="branch_14_" fill="none" stroke="#000000" stroke-miterlimit="10" x1="261.4" y1="255.7" x2="284.6" y2="224.3"/>
</g>
<g id="x">
	<polyline id="trunk_24_" fill="none" stroke="#000000" stroke-miterlimit="10" points="322.2,287.1 322.2,255.7 322.2,224.3 	"/>
	<line id="branch_16_" fill="none" stroke="#000000" stroke-miterlimit="10" x1="322.2" y1="255.7" x2="345.4" y2="224.3"/>
	<line id="branch_15_" fill="none" stroke="#000000" stroke-miterlimit="10" x1="322.2" y1="255.7" x2="299" y2="224.3"/>
</g>
<g id="w">
	<polyline id="trunk_21_" fill="none" stroke="#000000" stroke-miterlimit="10" points="158.7,280.7 158.7,249.2 147.1,257.4 
		147.1,233.6 135.5,242 135.5,217.8 	"/>
</g>
<g id="v">
	<polyline id="trunk_20_" fill="none" stroke="#000000" stroke-miterlimit="10" points="80.3,277.6 103.6,246.5 80.3,215.1 	"/>
</g>
<g id="u">
	<path id="trunk_19_" fill="none" stroke="#000000" stroke-miterlimit="10" d="M32.6,275.2c0,0,11.6-15.8,11.6-31.4
		c0-15.6-11.6-31.4-11.6-31.4"/>
</g>
<g id="t">
	<line id="trunk_18_" fill="none" stroke="#000000" stroke-miterlimit="10" x1="488.7" y1="198.1" x2="488.7" y2="135.6"/>
	<line id="branch_13_" fill="none" stroke="#000000" stroke-miterlimit="10" x1="488.7" y1="151.4" x2="500.3" y2="151.4"/>
</g>
<g id="s">
	<path id="trunk_16_" fill="none" stroke="#000000" stroke-miterlimit="10" d="M465.5,198.2c0,0,5.8-7.9,5.8-15.7
		c0-7.8-5.8-15.7-5.8-15.7s-5.8-7.9-5.8-15.7c0-7.8,5.8-15.7,5.8-15.7"/>
</g>
<g id="r">
	<line id="trunk_17_" fill="none" stroke="#000000" stroke-miterlimit="10" x1="415.1" y1="200.9" x2="415.1" y2="138.1"/>
	<path id="branch_11_" fill="none" stroke="#000000" stroke-miterlimit="10" d="M415.1,169.5c0,0,23.2,0,23.2-31.4"/>
	<line id="branch_12_" fill="none" stroke="#000000" stroke-miterlimit="10" x1="415.1" y1="169.5" x2="391.9" y2="138.1"/>
</g>
<g id="q">
	<path id="trunk_15_" fill="none" stroke="#000000" stroke-miterlimit="10" d="M373.8,195.2c0,0-5.8-7.9-5.8-15.7
		c0-7.8,5.8-15.7,5.8-15.7l-23.2-31.4"/>
	<path id="branch_10_" fill="none" stroke="#000000" stroke-miterlimit="10" d="M373.8,163.8c0,0-5.8-7.9-5.8-15.7
		c0-7.8,5.8-15.7,5.8-15.7"/>
</g>
<g id="p">
	<line id="trunk_14_" fill="none" stroke="#000000" stroke-miterlimit="10" x1="302.4" y1="200.9" x2="302.4" y2="138.1"/>
	<path id="branch_9_" fill="none" stroke="#000000" stroke-miterlimit="10" d="M302.4,169.5c0,0,23.2,0,23.2-31.4"/>
</g>
<g id="o">
	<path id="trunk_13_" fill="none" stroke="#000000" stroke-miterlimit="10" d="M267.6,200.9c0,0-5.8-7.9-5.8-15.7
		c0-7.8,5.8-15.7,5.8-15.7s-5.8-7.9-5.8-15.7c0-7.8,5.8-15.7,5.8-15.7"/>
</g>
<g id="n">
	<polyline id="trunk_12_" fill="none" stroke="#000000" stroke-miterlimit="10" points="204.7,195.2 204.7,155.5 227.9,172.1 
		227.9,132.3 	"/>
</g>
<g id="m">
	<polyline id="trunk_11_" fill="none" stroke="#000000" stroke-miterlimit="10" points="143.3,193 143.3,161.6 154.9,169.8 
		154.9,146 166.6,154.3 166.6,130.2 	"/>
</g>
<g id="l">
	<polyline id="trunk_10_" fill="none" stroke="#000000" stroke-miterlimit="10" points="100.7,193 77.5,161.6 100.7,130.2 	"/>
</g>
<g id="k">
	<line id="trunk_9_" fill="none" stroke="#000000" stroke-miterlimit="10" x1="38.4" y1="193" x2="38.4" y2="130.2"/>
	<line id="branch_7_" fill="none" stroke="#000000" stroke-miterlimit="10" x1="38.4" y1="146" x2="61.7" y2="130.2"/>
	<line id="branch_8_" fill="none" stroke="#000000" stroke-miterlimit="10" x1="38.4" y1="177.4" x2="15.2" y2="161.6"/>
</g>
<g id="j">
	<path id="trunk_8_" fill="none" stroke="#000000" stroke-miterlimit="10" d="M472.5,103.6c0,0,23.2,0,23.2-62.9"/>
</g>
<g id="i">
	<line id="trunk_7_" fill="none" stroke="#000000" stroke-miterlimit="10" x1="451.9" y1="93.2" x2="451.9" y2="30.3"/>
</g>
<g id="h">
	<line id="trunk_6_" fill="none" stroke="#000000" stroke-miterlimit="10" x1="407.4" y1="103.6" x2="407.4" y2="40.7"/>
	<polyline id="branch_6_" fill="none" stroke="#000000" stroke-miterlimit="10" points="407.4,72.1 430.6,72.1 430.6,40.7 	"/>
</g>
<g id="g">
	<polyline id="trunk_5_" fill="none" stroke="#000000" stroke-miterlimit="10" points="368.6,103.6 368.6,40.7 345.4,56.5 	"/>
	<line id="branch_5_" fill="none" stroke="#000000" stroke-miterlimit="10" x1="368.6" y1="40.7" x2="391.9" y2="56.5"/>
</g>
<g id="f">
	<line id="trunk_4_" fill="none" stroke="#000000" stroke-miterlimit="10" x1="314" y1="103.6" x2="314" y2="40.7"/>
	<line id="branch_18_" fill="none" stroke="#000000" stroke-miterlimit="10" x1="314" y1="72.1" x2="337.3" y2="72.1"/>
	<polyline id="branch_4_" fill="none" stroke="#000000" stroke-miterlimit="10" points="314,72.1 290.8,72.1 290.8,40.7 	"/>
</g>
<g id="e">
	<line id="trunk_3_" fill="none" stroke="#000000" stroke-miterlimit="10" x1="241.5" y1="103.6" x2="241.5" y2="40.7"/>
	<polyline id="branch_17_" fill="none" stroke="#000000" stroke-miterlimit="10" points="241.5,72.1 264.7,72.1 264.7,40.7 	"/>
	<polyline id="branch_3_" fill="none" stroke="#000000" stroke-miterlimit="10" points="241.5,72.1 218.2,72.1 218.2,40.7 	"/>
</g>
<g id="d">
	<line id="trunk_2_" fill="none" stroke="#000000" stroke-miterlimit="10" x1="178.1" y1="103.6" x2="178.1" y2="40.7"/>
	<path id="branch_2_" fill="none" stroke="#000000" stroke-miterlimit="10" d="M178.1,103.6c0,0,23.2,0,23.2-62.9"/>
</g>
<g id="c">
	<path id="trunk_25_" fill="none" stroke="#000000" stroke-miterlimit="10" d="M143.3,103.6c0,0-11.6-15.8-11.6-31.4
		c0-15.6,11.6-31.4,11.6-31.4"/>
</g>
<g id="b">
	<path id="trunk_1_" fill="none" stroke="#000000" stroke-miterlimit="10" d="M89.1,106.9V57.3v-0.2c-11.7,11.7-23.2,2.6-23.2-13.1"
		/>
	<path id="branch_1_" fill="none" stroke="#000000" stroke-miterlimit="10" d="M89.1,57.1c11.5,11.5,23.2,2.6,23.2-13.1"/>
</g>
<g id="a">
	<line id="trunk" fill="none" stroke="#000000" stroke-miterlimit="10" x1="26.8" y1="103.6" x2="26.8" y2="40.7"/>
	<line id="branch" fill="none" stroke="#000000" stroke-miterlimit="10" x1="26.8" y1="72.1" x2="50" y2="40.7"/>
</g>
</svg>
